<svg width="100" height="23" viewBox="0 0 100 23" fill="none" xmlns="http://www.w3.org/2000/svg">
<path d="M8.528 0.671999C10.224 0.671999 11.704 1.016 12.968 1.704C14.248 2.392 15.24 3.392 15.944 4.704C16.648 6 17 7.552 17 9.36C17 11.12 16.64 12.68 15.92 14.04C15.2 15.4 14.192 16.456 12.896 17.208C11.616 17.96 10.152 18.336 8.504 18.336C6.808 18.336 5.32 17.992 4.04 17.304C2.776 16.616 1.792 15.624 1.088 14.328C0.384 13.016 0.032 11.456 0.032 9.648C0.032 7.888 0.392 6.328 1.112 4.968C1.832 3.608 2.832 2.552 4.112 1.8C5.408 1.048 6.88 0.671999 8.528 0.671999ZM8.432 1.104C7.552 1.104 6.776 1.464 6.104 2.184C5.432 2.888 4.912 3.88 4.544 5.16C4.192 6.44 4.016 7.904 4.016 9.552C4.016 11.216 4.216 12.68 4.616 13.944C5.032 15.208 5.584 16.184 6.272 16.872C6.976 17.56 7.752 17.904 8.6 17.904C9.48 17.904 10.256 17.552 10.928 16.848C11.6 16.128 12.112 15.128 12.464 13.848C12.832 12.568 13.016 11.104 13.016 9.456C13.016 7.792 12.808 6.328 12.392 5.064C11.992 3.8 11.44 2.824 10.736 2.136C10.048 1.448 9.28 1.104 8.432 1.104ZM27.5353 5.256C28.7513 5.256 29.6313 5.568 30.1753 6.192C30.4473 6.496 30.6393 6.888 30.7513 7.368C30.8633 7.848 30.9193 8.496 30.9193 9.312V15.768C30.9193 16.424 31.0312 16.88 31.2552 17.136C31.4953 17.376 31.8953 17.496 32.4553 17.496V18C30.8553 17.936 29.7993 17.904 29.2873 17.904C28.8073 17.904 27.7673 17.936 26.1673 18V17.496C26.6473 17.496 26.9833 17.376 27.1753 17.136C27.3673 16.88 27.4633 16.424 27.4633 15.768V8.304C27.4633 7.648 27.3513 7.152 27.1273 6.816C26.9193 6.48 26.5353 6.312 25.9753 6.312C25.3193 6.312 24.7593 6.584 24.2953 7.128C23.8313 7.656 23.5993 8.312 23.5993 9.096V15.768C23.5993 16.424 23.6953 16.88 23.8873 17.136C24.0793 17.376 24.4153 17.496 24.8953 17.496V18C23.4233 17.936 22.4313 17.904 21.9193 17.904C21.4392 17.904 20.3352 17.936 18.6073 18V17.496C19.1833 17.496 19.5833 17.376 19.8073 17.136C20.0313 16.88 20.1433 16.424 20.1433 15.768V8.208C20.1433 7.472 20.0313 6.936 19.8073 6.6C19.5833 6.264 19.1833 6.096 18.6073 6.096V5.592C19.1193 5.64 19.6153 5.664 20.0953 5.664C21.5193 5.664 22.6873 5.552 23.5993 5.328V7.488C24.3193 6 25.6313 5.256 27.5353 5.256ZM40.4054 16.368C41.7174 16.368 42.7734 15.728 43.5734 14.448L44.0054 14.592C43.6854 15.632 43.1094 16.52 42.2774 17.256C41.4614 17.976 40.4374 18.336 39.2054 18.336C37.5094 18.336 36.1574 17.8 35.1494 16.728C34.1574 15.64 33.6614 14.04 33.6614 11.928C33.6614 9.768 34.1974 8.12 35.2694 6.984C36.3414 5.832 37.7654 5.256 39.5414 5.256C42.5494 5.256 44.0534 7.032 44.0534 10.584H37.3094C37.2934 10.824 37.2854 11.2 37.2854 11.712C37.2854 12.768 37.4294 13.648 37.7174 14.352C38.0214 15.056 38.4054 15.568 38.8694 15.888C39.3494 16.208 39.8614 16.368 40.4054 16.368ZM39.3974 5.76C38.8214 5.76 38.3414 6.12 37.9574 6.84C37.5894 7.544 37.3574 8.64 37.2614 10.128H41.0294C41.0614 8.864 40.9334 7.824 40.6454 7.008C40.3734 6.176 39.9574 5.76 39.3974 5.76ZM52.9854 1.488C52.4094 1.52 51.9854 1.584 51.7134 1.68C51.4574 1.776 51.2814 1.96 51.1854 2.232C51.0894 2.504 51.0414 2.944 51.0414 3.552V15.744C51.0414 16.256 51.0814 16.632 51.1614 16.872C51.2414 17.096 51.3774 17.248 51.5694 17.328C51.7774 17.408 52.1054 17.448 52.5534 17.448H53.7294C54.8174 17.448 55.7534 16.96 56.5374 15.984C57.3374 15.008 57.8574 13.712 58.0974 12.096H58.6494C58.6014 12.64 58.5774 13.344 58.5774 14.208C58.5774 15.744 58.6334 17.008 58.7454 18C57.6574 17.952 55.8254 17.928 53.2494 17.928C49.7614 17.928 47.1534 17.952 45.4254 18V17.52C45.9534 17.488 46.3374 17.424 46.5774 17.328C46.8334 17.232 47.0014 17.048 47.0814 16.776C47.1774 16.504 47.2254 16.064 47.2254 15.456V3.552C47.2254 2.944 47.1774 2.504 47.0814 2.232C47.0014 1.96 46.8334 1.776 46.5774 1.68C46.3374 1.584 45.9534 1.52 45.4254 1.488V1.008C46.2414 1.056 47.5054 1.08 49.2174 1.08C50.8494 1.08 52.1054 1.056 52.9854 1.008V1.488ZM66.0493 5.256C67.8893 5.256 69.3293 5.784 70.3693 6.84C71.4093 7.88 71.9293 9.536 71.9293 11.808C71.9293 14.08 71.4093 15.736 70.3693 16.776C69.3293 17.816 67.8893 18.336 66.0493 18.336C64.2253 18.336 62.7853 17.816 61.7293 16.776C60.6893 15.736 60.1693 14.08 60.1693 11.808C60.1693 9.536 60.6893 7.88 61.7293 6.84C62.7853 5.784 64.2253 5.256 66.0493 5.256ZM66.0493 5.736C65.3613 5.736 64.8093 6.24 64.3933 7.248C63.9933 8.24 63.7933 9.76 63.7933 11.808C63.7933 13.856 63.9933 15.376 64.3933 16.368C64.8093 17.36 65.3613 17.856 66.0493 17.856C66.7533 17.856 67.3053 17.368 67.7053 16.392C68.1053 15.4 68.3053 13.872 68.3053 11.808C68.3053 9.744 68.0973 8.216 67.6813 7.224C67.2813 6.232 66.7373 5.736 66.0493 5.736ZM79.6196 5.256C81.4596 5.256 82.8996 5.784 83.9396 6.84C84.9796 7.88 85.4996 9.536 85.4996 11.808C85.4996 14.08 84.9796 15.736 83.9396 16.776C82.8996 17.816 81.4596 18.336 79.6196 18.336C77.7956 18.336 76.3556 17.816 75.2996 16.776C74.2596 15.736 73.7396 14.08 73.7396 11.808C73.7396 9.536 74.2596 7.88 75.2996 6.84C76.3556 5.784 77.7956 5.256 79.6196 5.256ZM79.6196 5.736C78.9316 5.736 78.3796 6.24 77.9636 7.248C77.5636 8.24 77.3636 9.76 77.3636 11.808C77.3636 13.856 77.5636 15.376 77.9636 16.368C78.3796 17.36 78.9316 17.856 79.6196 17.856C80.3236 17.856 80.8756 17.368 81.2756 16.392C81.6756 15.4 81.8756 13.872 81.8756 11.808C81.8756 9.744 81.6676 8.216 81.2516 7.224C80.8516 6.232 80.3076 5.736 79.6196 5.736ZM95.6139 5.256C96.4459 5.256 97.1819 5.48 97.8219 5.928C98.4779 6.376 98.9899 7.048 99.3579 7.944C99.7259 8.84 99.9099 9.936 99.9099 11.232C99.9099 13.52 99.4059 15.28 98.3979 16.512C97.4059 17.728 96.0539 18.336 94.3419 18.336C93.8619 18.336 93.4059 18.272 92.9739 18.144C92.5579 18.016 92.1979 17.824 91.8939 17.568V19.968C91.8939 20.672 92.0699 21.16 92.4219 21.432C92.7739 21.704 93.3179 21.84 94.0539 21.84V22.344L93.4059 22.32C91.6299 22.272 90.5019 22.248 90.0219 22.248C89.5419 22.248 88.5339 22.28 86.9979 22.344V21.84C87.5259 21.84 87.8939 21.72 88.1019 21.48C88.3259 21.256 88.4379 20.832 88.4379 20.208V8.208C88.4379 7.472 88.3179 6.936 88.0779 6.6C87.8539 6.264 87.4619 6.096 86.9019 6.096V5.592C87.4139 5.64 87.9099 5.664 88.3899 5.664C89.7819 5.664 90.9499 5.552 91.8939 5.328V7.536C92.2299 6.8 92.7179 6.24 93.3579 5.856C93.9979 5.456 94.7499 5.256 95.6139 5.256ZM93.4059 17.688C94.4299 17.688 95.1659 17.184 95.6139 16.176C96.0619 15.152 96.2859 13.664 96.2859 11.712C96.2859 9.76 96.1019 8.368 95.7339 7.536C95.3819 6.704 94.8699 6.288 94.1979 6.288C93.6539 6.288 93.1659 6.472 92.7339 6.84C92.3179 7.208 92.0379 7.72 91.8939 8.376V17.04C92.2779 17.472 92.7819 17.688 93.4059 17.688Z" fill="white"/>
</svg>
